<?xml version="1.0" encoding="UTF-8" standalone="no"?><svg xmlns="http://www.w3.org/2000/svg" xmlns:xlink="http://www.w3.org/1999/xlink" contentStyleType="text/css" height="848px" preserveAspectRatio="none" style="width:1329px;height:848px;background:#FFFFFF;" version="1.1" viewBox="0 0 1329 848" width="1329px" zoomAndPan="magnify"><defs/><g><rect fill="#FFFFFF" height="27.6094" id="_title" rx="3.5" ry="3.5" style="stroke:none;stroke-width:1.0;" width="158" x="578.5" y="5"/><text fill="#000000" font-family="sans-serif" font-size="14" font-weight="bold" lengthAdjust="spacing" textLength="148" x="583.5" y="24.5332">SassoGNL Packet API</text><!--MD5=[ef70be79f6755a35fb39f64e7faf05f7]
class Packet--><g id="elem_Packet"><rect codeLine="5" fill="#F1F1F1" height="136.0469" id="Packet" rx="3.5" ry="3.5" style="stroke:#181818;stroke-width:0.5;" width="172" x="774.5" y="45.6094"/><ellipse cx="834.25" cy="61.6094" fill="#B4A7E5" rx="11" ry="11" style="stroke:#181818;stroke-width:1.0;"/><path d="M835.2031,58.25 L835.2031,64.9063 L836.9219,64.9063 Q837.5313,64.9063 837.7969,65.1406 Q838.0625,65.375 838.0625,65.7656 Q838.0625,66.1406 837.7969,66.375 Q837.5313,66.6094 836.9219,66.6094 L831.7813,66.6094 Q831.1719,66.6094 830.9063,66.375 Q830.6406,66.1406 830.6406,65.75 Q830.6406,65.375 830.9063,65.1406 Q831.1719,64.9063 831.7813,64.9063 L833.5,64.9063 L833.5,58.25 L831.7813,58.25 Q831.1719,58.25 830.9063,58.0156 Q830.6406,57.7813 830.6406,57.3906 Q830.6406,57.0156 830.9063,56.7813 Q831.1719,56.5469 831.7813,56.5469 L836.9219,56.5469 Q837.5313,56.5469 837.7969,56.7813 Q838.0625,57.0156 838.0625,57.3906 Q838.0625,57.7813 837.7969,58.0156 Q837.5313,58.25 836.9219,58.25 L835.2031,58.25 Z " fill="#000000"/><text fill="#000000" font-family="sans-serif" font-size="14" font-style="italic" lengthAdjust="spacing" textLength="44" x="854.75" y="67.3379">Packet</text><line style="stroke:#181818;stroke-width:0.5;" x1="775.5" x2="945.5" y1="77.6094" y2="77.6094"/><text fill="#000000" font-family="sans-serif" font-size="14" lengthAdjust="spacing" textLength="160" x="780.5" y="96.1426">HeaderData: HeaderData</text><text fill="#000000" font-family="sans-serif" font-size="14" lengthAdjust="spacing" textLength="144" x="780.5" y="113.752">DataBuffer: DataBuffer</text><text fill="#000000" font-family="sans-serif" font-size="14" lengthAdjust="spacing" textLength="114" x="780.5" y="131.3613">TailData: TailData</text><text fill="#000000" font-family="sans-serif" font-size="14" lengthAdjust="spacing" textLength="160" x="780.5" y="148.9707">CheckValue: CheckValue</text><text fill="#000000" font-family="sans-serif" font-size="14" lengthAdjust="spacing" textLength="118" x="780.5" y="166.5801">SizeLimit: SizeLimit</text><line style="stroke:#181818;stroke-width:0.5;" x1="775.5" x2="945.5" y1="173.6563" y2="173.6563"/></g><!--MD5=[9e6417bfb76d6877f4ff33af224c718c]
class netFmt--><g id="elem_netFmt"><rect codeLine="13" fill="#F1F1F1" height="83.2188" id="netFmt" rx="3.5" ry="3.5" style="stroke:#181818;stroke-width:0.5;" width="76" x="58.5" y="758.6094"/><ellipse cx="73.5" cy="774.6094" fill="#EB937F" rx="11" ry="11" style="stroke:#181818;stroke-width:1.0;"/><path d="M72.3594,775.4063 L72.3594,777.9063 L76.6875,777.9063 L76.6875,776.9844 Q76.6875,776.375 76.9219,776.1094 Q77.1719,775.8438 77.5469,775.8438 Q77.9219,775.8438 78.1563,776.1094 Q78.3906,776.375 78.3906,776.9844 L78.3906,779.6094 L70.3906,779.6094 Q69.7656,779.6094 69.5,779.375 Q69.25,779.1406 69.25,778.75 Q69.25,778.375 69.5156,778.1406 Q69.7813,777.9063 70.3906,777.9063 L70.6563,777.9063 L70.6563,771.25 L70.3906,771.25 Q69.7656,771.25 69.5,771.0156 Q69.25,770.7813 69.25,770.3906 Q69.25,770.0156 69.5,769.7813 Q69.7656,769.5469 70.3906,769.5469 L78.0156,769.5469 L78.0156,772.1406 Q78.0156,772.75 77.7813,773.0156 Q77.5625,773.2656 77.1719,773.2656 Q76.7969,773.2656 76.5625,773.0156 Q76.3281,772.75 76.3281,772.1406 L76.3281,771.25 L72.3594,771.25 L72.3594,773.7031 L73.8438,773.7031 Q73.8438,773.0469 73.9688,772.8594 Q74.2344,772.4531 74.7031,772.4531 Q75.0781,772.4531 75.3125,772.7188 Q75.5469,772.9688 75.5469,773.5781 L75.5469,775.5469 Q75.5469,776.0938 75.4219,776.2813 Q75.1563,776.6719 74.7031,776.6719 Q74.2344,776.6719 73.9688,776.2656 Q73.8438,776.0781 73.8438,775.4063 L72.3594,775.4063 Z " fill="#000000"/><text fill="#000000" font-family="sans-serif" font-size="14" lengthAdjust="spacing" textLength="44" x="87.5" y="780.3379">netFmt</text><line style="stroke:#181818;stroke-width:0.5;" x1="59.5" x2="133.5" y1="790.6094" y2="790.6094"/><ellipse cx="69.5" cy="804.9141" fill="none" rx="3" ry="3" style="stroke:#038048;stroke-width:1.0;"/><text fill="#000000" font-family="sans-serif" font-size="14" lengthAdjust="spacing" textLength="27" x="78.5" y="809.1426">IPv4</text><ellipse cx="69.5" cy="822.5234" fill="none" rx="3" ry="3" style="stroke:#038048;stroke-width:1.0;"/><text fill="#000000" font-family="sans-serif" font-size="14" lengthAdjust="spacing" textLength="27" x="78.5" y="826.752">IPv6</text><line style="stroke:#181818;stroke-width:0.5;" x1="59.5" x2="133.5" y1="833.8281" y2="833.8281"/></g><!--MD5=[84c1d07701175a43dc5fa9d3f7415857]
class HeaderDataStruct--><g id="elem_HeaderDataStruct"><rect codeLine="18" fill="#F1F1F1" height="224.0938" id="HeaderDataStruct" rx="3.5" ry="3.5" style="stroke:#181818;stroke-width:0.5;" width="299" x="7" y="473.6094"/><ellipse cx="95.75" cy="489.6094" fill="#F1F1F1" rx="11" ry="11" style="stroke:#181818;stroke-width:1.0;"/><path d="M93.8594,494.1719 Q93.6406,494.4375 93.5,494.5156 Q93.3594,494.5938 93.1719,494.5938 Q92.7813,494.5938 92.5313,494.3281 Q92.2969,494.0625 92.2969,493.4688 L92.2969,492.3125 Q92.2969,491.7031 92.5313,491.4531 Q92.7813,491.1875 93.1719,491.1875 Q93.4688,491.1875 93.6719,491.3438 Q93.875,491.5 93.9844,491.875 Q94.0938,492.2344 94.2031,492.375 Q94.4531,492.625 95.0625,492.8906 Q95.6719,493.1563 96.4063,493.1563 Q97.5469,493.1563 98.2656,492.625 Q98.7344,492.2969 98.7344,491.8281 Q98.7344,491.5156 98.5156,491.2344 Q98.2969,490.9531 97.7813,490.7813 Q97.4531,490.6563 96.2969,490.4375 Q94.9063,490.1719 94.1875,489.8125 Q93.4688,489.4531 93.0469,488.7969 Q92.6406,488.125 92.6406,487.3438 Q92.6406,486.125 93.6563,485.2188 Q94.6875,484.2969 96.3281,484.2969 Q96.9844,484.2969 97.5313,484.4375 Q98.0938,484.5781 98.5625,484.875 Q98.8906,484.5625 99.2188,484.5625 Q99.5938,484.5625 99.8281,484.8281 Q100.0625,485.0781 100.0625,485.6875 L100.0625,486.9688 Q100.0625,487.5781 99.8281,487.8438 Q99.5938,488.0938 99.2188,488.0938 Q98.9063,488.0938 98.6719,487.9063 Q98.4844,487.7656 98.3906,487.3438 Q98.3125,486.9219 98.1719,486.7344 Q97.9219,486.4219 97.4375,486.2188 Q96.9688,486 96.3281,486 Q95.4063,486 94.875,486.4219 Q94.3438,486.8438 94.3438,487.3125 Q94.3438,487.625 94.5625,487.9219 Q94.7813,488.2188 95.2031,488.3906 Q95.4844,488.5 96.7813,488.7656 Q98.0938,489.0156 98.7969,489.3281 Q99.5,489.625 99.9688,490.2813 Q100.4375,490.9375 100.4375,491.8438 Q100.4375,493.1094 99.5469,493.8594 Q98.3594,494.8594 96.5313,494.8594 Q95.8281,494.8594 95.1563,494.6875 Q94.5,494.5156 93.8594,494.1719 Z " fill="#000000"/><text fill="#000000" font-family="sans-serif" font-size="14" lengthAdjust="spacing" textLength="113" x="116.25" y="495.3379">HeaderDataStruct</text><line style="stroke:#181818;stroke-width:0.5;" x1="8" x2="305" y1="505.6094" y2="505.6094"/><text fill="#000000" font-family="sans-serif" font-size="14" lengthAdjust="spacing" textLength="96" x="13" y="524.1426">netFmt: netFmt</text><text fill="#000000" font-family="sans-serif" font-size="14" lengthAdjust="spacing" textLength="165" x="13" y="541.752">sendIP: sockaddr_storage</text><text fill="#000000" font-family="sans-serif" font-size="14" lengthAdjust="spacing" textLength="161" x="13" y="559.3613">recvIP: sockaddr_storage</text><text fill="#000000" font-family="sans-serif" font-size="14" lengthAdjust="spacing" textLength="165" x="13" y="576.9707">commPort: unsigned short</text><text fill="#000000" font-family="sans-serif" font-size="14" lengthAdjust="spacing" textLength="98" x="13" y="594.5801">dataSize: size_t</text><text fill="#000000" font-family="sans-serif" font-size="14" lengthAdjust="spacing" textLength="88" x="13" y="612.1895">tailSize: size_t</text><text fill="#000000" font-family="sans-serif" font-size="14" lengthAdjust="spacing" textLength="127" x="13" y="629.7988">checkValSize: size_t</text><text fill="#000000" font-family="sans-serif" font-size="14" lengthAdjust="spacing" textLength="154" x="13" y="647.4082">dataPos: unsigned short</text><text fill="#000000" font-family="sans-serif" font-size="14" lengthAdjust="spacing" textLength="179" x="13" y="665.0176">flagBArrSize: unsigned short</text><text fill="#000000" font-family="sans-serif" font-size="14" lengthAdjust="spacing" textLength="287" x="13" y="682.627">flagBArr: bitset&lt;flagBArrSize&gt; [unsigned long]</text><line style="stroke:#181818;stroke-width:0.5;" x1="8" x2="305" y1="689.7031" y2="689.7031"/></g><!--MD5=[e46885812a10c6623968d724927e926a]
class std::bitset--><g id="elem_std::bitset"><rect fill="#F1F1F1" height="48" id="std::bitset" rx="3.5" ry="3.5" style="stroke:#181818;stroke-width:0.5;" width="93" x="170" y="776.1094"/><ellipse cx="185" cy="792.1094" fill="#ADD1B2" rx="11" ry="11" style="stroke:#181818;stroke-width:1.0;"/><path d="M187.7656,787.9844 Q187.9219,787.7656 188.1094,787.6563 Q188.2969,787.5469 188.5156,787.5469 Q188.8906,787.5469 189.125,787.8125 Q189.3594,788.0625 189.3594,788.6719 L189.3594,790.125 Q189.3594,790.7344 189.125,791 Q188.8906,791.2656 188.5156,791.2656 Q188.1719,791.2656 187.9688,791.0625 Q187.7656,790.875 187.6563,790.3594 Q187.6094,790 187.4219,789.8125 Q187.0938,789.4375 186.4844,789.2188 Q185.875,789 185.25,789 Q184.4844,789 183.8438,789.3281 Q183.2188,789.6563 182.7188,790.4063 Q182.2344,791.1563 182.2344,792.1875 L182.2344,793.2813 Q182.2344,794.5156 183.125,795.3438 Q184.0156,796.1563 185.6094,796.1563 Q186.5469,796.1563 187.2031,795.9063 Q187.5938,795.75 188.0156,795.3125 Q188.2813,795.0469 188.4219,794.9688 Q188.5781,794.8906 188.7813,794.8906 Q189.1094,794.8906 189.3594,795.1563 Q189.625,795.4063 189.625,795.75 Q189.625,796.0938 189.2813,796.5 Q188.7813,797.0781 187.9844,797.4063 Q186.9063,797.8594 185.6094,797.8594 Q184.0938,797.8594 182.8906,797.2344 Q181.9063,796.7344 181.2188,795.6719 Q180.5313,794.5938 180.5313,793.3125 L180.5313,792.1563 Q180.5313,790.8281 181.1406,789.6875 Q181.7656,788.5313 182.8594,787.9219 Q183.9531,787.2969 185.1875,787.2969 Q185.9219,787.2969 186.5625,787.4688 Q187.2188,787.625 187.7656,787.9844 Z " fill="#000000"/><text fill="#000000" font-family="sans-serif" font-size="14" lengthAdjust="spacing" textLength="61" x="199" y="797.8379">std::bitset</text><line style="stroke:#181818;stroke-width:0.5;" x1="171" x2="262" y1="808.1094" y2="808.1094"/><line style="stroke:#181818;stroke-width:0.5;" x1="171" x2="262" y1="816.1094" y2="816.1094"/></g><!--MD5=[bb1c5d854565196b12f8b921ee2385a2]
class HeaderData--><g id="elem_HeaderData"><rect codeLine="34" fill="#F1F1F1" height="83.2188" id="HeaderData" rx="3.5" ry="3.5" style="stroke:#181818;stroke-width:0.5;" width="175" x="69" y="286.1094"/><ellipse cx="114.25" cy="302.1094" fill="#ADD1B2" rx="11" ry="11" style="stroke:#181818;stroke-width:1.0;"/><path d="M117.0156,297.9844 Q117.1719,297.7656 117.3594,297.6563 Q117.5469,297.5469 117.7656,297.5469 Q118.1406,297.5469 118.375,297.8125 Q118.6094,298.0625 118.6094,298.6719 L118.6094,300.125 Q118.6094,300.7344 118.375,301 Q118.1406,301.2656 117.7656,301.2656 Q117.4219,301.2656 117.2188,301.0625 Q117.0156,300.875 116.9063,300.3594 Q116.8594,300 116.6719,299.8125 Q116.3438,299.4375 115.7344,299.2188 Q115.125,299 114.5,299 Q113.7344,299 113.0938,299.3281 Q112.4688,299.6563 111.9688,300.4063 Q111.4844,301.1563 111.4844,302.1875 L111.4844,303.2813 Q111.4844,304.5156 112.375,305.3438 Q113.2656,306.1563 114.8594,306.1563 Q115.7969,306.1563 116.4531,305.9063 Q116.8438,305.75 117.2656,305.3125 Q117.5313,305.0469 117.6719,304.9688 Q117.8281,304.8906 118.0313,304.8906 Q118.3594,304.8906 118.6094,305.1563 Q118.875,305.4063 118.875,305.75 Q118.875,306.0938 118.5313,306.5 Q118.0313,307.0781 117.2344,307.4063 Q116.1563,307.8594 114.8594,307.8594 Q113.3438,307.8594 112.1406,307.2344 Q111.1563,306.7344 110.4688,305.6719 Q109.7813,304.5938 109.7813,303.3125 L109.7813,302.1563 Q109.7813,300.8281 110.3906,299.6875 Q111.0156,298.5313 112.1094,297.9219 Q113.2031,297.2969 114.4375,297.2969 Q115.1719,297.2969 115.8125,297.4688 Q116.4688,297.625 117.0156,297.9844 Z " fill="#000000"/><text fill="#000000" font-family="sans-serif" font-size="14" lengthAdjust="spacing" textLength="76" x="134.75" y="307.8379">HeaderData</text><line style="stroke:#181818;stroke-width:0.5;" x1="70" x2="243" y1="318.1094" y2="318.1094"/><rect fill="none" height="6" style="stroke:#C82930;stroke-width:1.0;" width="6" x="77" y="329.4141"/><text fill="#000000" font-family="sans-serif" font-size="14" lengthAdjust="spacing" textLength="149" x="89" y="336.6426">data: HeaderDataStruct</text><line style="stroke:#181818;stroke-width:0.5;" x1="70" x2="243" y1="343.7188" y2="343.7188"/><ellipse cx="80" cy="358.0234" fill="#84BE84" rx="3" ry="3" style="stroke:#038048;stroke-width:1.0;"/><text fill="#000000" font-family="sans-serif" font-size="14" lengthAdjust="spacing" textLength="81" x="89" y="362.252">getMaxSize()</text></g><!--MD5=[37d4e7b909a7267eaf154fe45496e496]
class DataBuffer--><g id="elem_DataBuffer"><rect codeLine="41" fill="#F1F1F1" height="65.6094" id="DataBuffer" rx="3.5" ry="3.5" style="stroke:#181818;stroke-width:0.5;" width="107" x="279" y="294.6094"/><ellipse cx="297.15" cy="310.6094" fill="#B4A7E5" rx="11" ry="11" style="stroke:#181818;stroke-width:1.0;"/><path d="M298.1031,307.25 L298.1031,313.9063 L299.8219,313.9063 Q300.4313,313.9063 300.6969,314.1406 Q300.9625,314.375 300.9625,314.7656 Q300.9625,315.1406 300.6969,315.375 Q300.4313,315.6094 299.8219,315.6094 L294.6813,315.6094 Q294.0719,315.6094 293.8063,315.375 Q293.5406,315.1406 293.5406,314.75 Q293.5406,314.375 293.8063,314.1406 Q294.0719,313.9063 294.6813,313.9063 L296.4,313.9063 L296.4,307.25 L294.6813,307.25 Q294.0719,307.25 293.8063,307.0156 Q293.5406,306.7813 293.5406,306.3906 Q293.5406,306.0156 293.8063,305.7813 Q294.0719,305.5469 294.6813,305.5469 L299.8219,305.5469 Q300.4313,305.5469 300.6969,305.7813 Q300.9625,306.0156 300.9625,306.3906 Q300.9625,306.7813 300.6969,307.0156 Q300.4313,307.25 299.8219,307.25 L298.1031,307.25 Z " fill="#000000"/><text fill="#000000" font-family="sans-serif" font-size="14" font-style="italic" lengthAdjust="spacing" textLength="68" x="311.85" y="316.3379">DataBuffer</text><line style="stroke:#181818;stroke-width:0.5;" x1="280" x2="385" y1="326.6094" y2="326.6094"/><line style="stroke:#181818;stroke-width:0.5;" x1="280" x2="385" y1="334.6094" y2="334.6094"/><ellipse cx="290" cy="348.9141" fill="#84BE84" rx="3" ry="3" style="stroke:#038048;stroke-width:1.0;"/><text fill="#000000" font-family="sans-serif" font-size="14" lengthAdjust="spacing" textLength="81" x="299" y="353.1426">getMaxSize()</text></g><!--MD5=[4237aaa03957539659cecc11a8f07be8]
class TailData--><g id="elem_TailData"><rect codeLine="44" fill="#F1F1F1" height="65.6094" id="TailData" rx="3.5" ry="3.5" style="stroke:#181818;stroke-width:0.5;" width="107" x="929" y="294.6094"/><ellipse cx="953.9" cy="310.6094" fill="#B4A7E5" rx="11" ry="11" style="stroke:#181818;stroke-width:1.0;"/><path d="M954.8531,307.25 L954.8531,313.9063 L956.5719,313.9063 Q957.1813,313.9063 957.4469,314.1406 Q957.7125,314.375 957.7125,314.7656 Q957.7125,315.1406 957.4469,315.375 Q957.1813,315.6094 956.5719,315.6094 L951.4313,315.6094 Q950.8219,315.6094 950.5563,315.375 Q950.2906,315.1406 950.2906,314.75 Q950.2906,314.375 950.5563,314.1406 Q950.8219,313.9063 951.4313,313.9063 L953.15,313.9063 L953.15,307.25 L951.4313,307.25 Q950.8219,307.25 950.5563,307.0156 Q950.2906,306.7813 950.2906,306.3906 Q950.2906,306.0156 950.5563,305.7813 Q950.8219,305.5469 951.4313,305.5469 L956.5719,305.5469 Q957.1813,305.5469 957.4469,305.7813 Q957.7125,306.0156 957.7125,306.3906 Q957.7125,306.7813 957.4469,307.0156 Q957.1813,307.25 956.5719,307.25 L954.8531,307.25 Z " fill="#000000"/><text fill="#000000" font-family="sans-serif" font-size="14" font-style="italic" lengthAdjust="spacing" textLength="53" x="970.1" y="316.3379">TailData</text><line style="stroke:#181818;stroke-width:0.5;" x1="930" x2="1035" y1="326.6094" y2="326.6094"/><line style="stroke:#181818;stroke-width:0.5;" x1="930" x2="1035" y1="334.6094" y2="334.6094"/><ellipse cx="940" cy="348.9141" fill="#84BE84" rx="3" ry="3" style="stroke:#038048;stroke-width:1.0;"/><text fill="#000000" font-family="sans-serif" font-size="14" lengthAdjust="spacing" textLength="81" x="949" y="353.1426">getMaxSize()</text></g><!--MD5=[dc276aaa475e5eac7dcfc1f0566f9738]
class CheckValue--><g id="elem_CheckValue"><rect codeLine="47" fill="#F1F1F1" height="65.6094" id="CheckValue" rx="3.5" ry="3.5" style="stroke:#181818;stroke-width:0.5;" width="109" x="1071" y="294.6094"/><ellipse cx="1086" cy="310.6094" fill="#B4A7E5" rx="11" ry="11" style="stroke:#181818;stroke-width:1.0;"/><path d="M1086.9531,307.25 L1086.9531,313.9063 L1088.6719,313.9063 Q1089.2813,313.9063 1089.5469,314.1406 Q1089.8125,314.375 1089.8125,314.7656 Q1089.8125,315.1406 1089.5469,315.375 Q1089.2813,315.6094 1088.6719,315.6094 L1083.5313,315.6094 Q1082.9219,315.6094 1082.6563,315.375 Q1082.3906,315.1406 1082.3906,314.75 Q1082.3906,314.375 1082.6563,314.1406 Q1082.9219,313.9063 1083.5313,313.9063 L1085.25,313.9063 L1085.25,307.25 L1083.5313,307.25 Q1082.9219,307.25 1082.6563,307.0156 Q1082.3906,306.7813 1082.3906,306.3906 Q1082.3906,306.0156 1082.6563,305.7813 Q1082.9219,305.5469 1083.5313,305.5469 L1088.6719,305.5469 Q1089.2813,305.5469 1089.5469,305.7813 Q1089.8125,306.0156 1089.8125,306.3906 Q1089.8125,306.7813 1089.5469,307.0156 Q1089.2813,307.25 1088.6719,307.25 L1086.9531,307.25 Z " fill="#000000"/><text fill="#000000" font-family="sans-serif" font-size="14" font-style="italic" lengthAdjust="spacing" textLength="77" x="1100" y="316.3379">CheckValue</text><line style="stroke:#181818;stroke-width:0.5;" x1="1072" x2="1179" y1="326.6094" y2="326.6094"/><line style="stroke:#181818;stroke-width:0.5;" x1="1072" x2="1179" y1="334.6094" y2="334.6094"/><ellipse cx="1082" cy="348.9141" fill="#84BE84" rx="3" ry="3" style="stroke:#038048;stroke-width:1.0;"/><text fill="#000000" font-family="sans-serif" font-size="14" lengthAdjust="spacing" textLength="81" x="1091" y="353.1426">getMaxSize()</text></g><!--MD5=[5a31f5737e10b1dd1ba021817dc62fc6]
class SizeLimit--><g id="elem_SizeLimit"><rect codeLine="50" fill="#F1F1F1" height="65.6094" id="SizeLimit" rx="3.5" ry="3.5" style="stroke:#181818;stroke-width:0.5;" width="107" x="1215" y="294.6094"/><ellipse cx="1239" cy="310.6094" fill="#ADD1B2" rx="11" ry="11" style="stroke:#181818;stroke-width:1.0;"/><path d="M1241.7656,306.4844 Q1241.9219,306.2656 1242.1094,306.1563 Q1242.2969,306.0469 1242.5156,306.0469 Q1242.8906,306.0469 1243.125,306.3125 Q1243.3594,306.5625 1243.3594,307.1719 L1243.3594,308.625 Q1243.3594,309.2344 1243.125,309.5 Q1242.8906,309.7656 1242.5156,309.7656 Q1242.1719,309.7656 1241.9688,309.5625 Q1241.7656,309.375 1241.6563,308.8594 Q1241.6094,308.5 1241.4219,308.3125 Q1241.0938,307.9375 1240.4844,307.7188 Q1239.875,307.5 1239.25,307.5 Q1238.4844,307.5 1237.8438,307.8281 Q1237.2188,308.1563 1236.7188,308.9063 Q1236.2344,309.6563 1236.2344,310.6875 L1236.2344,311.7813 Q1236.2344,313.0156 1237.125,313.8438 Q1238.0156,314.6563 1239.6094,314.6563 Q1240.5469,314.6563 1241.2031,314.4063 Q1241.5938,314.25 1242.0156,313.8125 Q1242.2813,313.5469 1242.4219,313.4688 Q1242.5781,313.3906 1242.7813,313.3906 Q1243.1094,313.3906 1243.3594,313.6563 Q1243.625,313.9063 1243.625,314.25 Q1243.625,314.5938 1243.2813,315 Q1242.7813,315.5781 1241.9844,315.9063 Q1240.9063,316.3594 1239.6094,316.3594 Q1238.0938,316.3594 1236.8906,315.7344 Q1235.9063,315.2344 1235.2188,314.1719 Q1234.5313,313.0938 1234.5313,311.8125 L1234.5313,310.6563 Q1234.5313,309.3281 1235.1406,308.1875 Q1235.7656,307.0313 1236.8594,306.4219 Q1237.9531,305.7969 1239.1875,305.7969 Q1239.9219,305.7969 1240.5625,305.9688 Q1241.2188,306.125 1241.7656,306.4844 Z " fill="#000000"/><text fill="#000000" font-family="sans-serif" font-size="14" lengthAdjust="spacing" textLength="55" x="1255" y="316.3379">SizeLimit</text><line style="stroke:#181818;stroke-width:0.5;" x1="1216" x2="1321" y1="326.6094" y2="326.6094"/><line style="stroke:#181818;stroke-width:0.5;" x1="1216" x2="1321" y1="334.6094" y2="334.6094"/><ellipse cx="1226" cy="348.9141" fill="#84BE84" rx="3" ry="3" style="stroke:#038048;stroke-width:1.0;"/><text fill="#000000" font-family="sans-serif" font-size="14" lengthAdjust="spacing" textLength="81" x="1235" y="353.1426">getMaxSize()</text></g><!--MD5=[ed46ca3a2baebaadcf86b8c68cb53cc9]
class ExPacket--><g id="elem_ExPacket"><rect codeLine="71" fill="#F1F1F1" height="136.0469" id="ExPacket" rx="3.5" ry="3.5" style="stroke:#181818;stroke-width:0.5;" width="472" x="421.5" y="259.6094"/><ellipse cx="624.25" cy="275.6094" fill="#ADD1B2" rx="11" ry="11" style="stroke:#181818;stroke-width:1.0;"/><path d="M627.0156,271.4844 Q627.1719,271.2656 627.3594,271.1563 Q627.5469,271.0469 627.7656,271.0469 Q628.1406,271.0469 628.375,271.3125 Q628.6094,271.5625 628.6094,272.1719 L628.6094,273.625 Q628.6094,274.2344 628.375,274.5 Q628.1406,274.7656 627.7656,274.7656 Q627.4219,274.7656 627.2188,274.5625 Q627.0156,274.375 626.9063,273.8594 Q626.8594,273.5 626.6719,273.3125 Q626.3438,272.9375 625.7344,272.7188 Q625.125,272.5 624.5,272.5 Q623.7344,272.5 623.0938,272.8281 Q622.4688,273.1563 621.9688,273.9063 Q621.4844,274.6563 621.4844,275.6875 L621.4844,276.7813 Q621.4844,278.0156 622.375,278.8438 Q623.2656,279.6563 624.8594,279.6563 Q625.7969,279.6563 626.4531,279.4063 Q626.8438,279.25 627.2656,278.8125 Q627.5313,278.5469 627.6719,278.4688 Q627.8281,278.3906 628.0313,278.3906 Q628.3594,278.3906 628.6094,278.6563 Q628.875,278.9063 628.875,279.25 Q628.875,279.5938 628.5313,280 Q628.0313,280.5781 627.2344,280.9063 Q626.1563,281.3594 624.8594,281.3594 Q623.3438,281.3594 622.1406,280.7344 Q621.1563,280.2344 620.4688,279.1719 Q619.7813,278.0938 619.7813,276.8125 L619.7813,275.6563 Q619.7813,274.3281 620.3906,273.1875 Q621.0156,272.0313 622.1094,271.4219 Q623.2031,270.7969 624.4375,270.7969 Q625.1719,270.7969 625.8125,270.9688 Q626.4688,271.125 627.0156,271.4844 Z " fill="#000000"/><text fill="#000000" font-family="sans-serif" font-size="14" lengthAdjust="spacing" textLength="58" x="644.75" y="281.3379">ExPacket</text><line style="stroke:#181818;stroke-width:0.5;" x1="422.5" x2="892.5" y1="291.6094" y2="291.6094"/><rect fill="none" height="6" style="stroke:#C82930;stroke-width:1.0;" width="6" x="429.5" y="302.9141"/><text fill="#000000" font-family="sans-serif" font-size="14" lengthAdjust="spacing" textLength="159" x="441.5" y="310.1426">DataBuffer: ExDataBuffer</text><rect fill="none" height="6" style="stroke:#C82930;stroke-width:1.0;" width="6" x="429.5" y="320.5234"/><text fill="#000000" font-family="sans-serif" font-size="14" lengthAdjust="spacing" textLength="129" x="441.5" y="327.752">TailData: ExTailData</text><rect fill="none" height="6" style="stroke:#C82930;stroke-width:1.0;" width="6" x="429.5" y="338.1328"/><text fill="#000000" font-family="sans-serif" font-size="14" lengthAdjust="spacing" textLength="175" x="441.5" y="345.3613">CheckValue: ExCheckValue</text><line style="stroke:#181818;stroke-width:0.5;" x1="422.5" x2="892.5" y1="352.4375" y2="352.4375"/><ellipse cx="432.5" cy="366.7422" fill="#84BE84" rx="3" ry="3" style="stroke:#038048;stroke-width:1.0;"/><text fill="#000000" font-family="sans-serif" font-size="14" lengthAdjust="spacing" textLength="297" x="441.5" y="370.9707">Serialize(buffLen: size_t&amp;): serializedBuff: char*</text><ellipse cx="432.5" cy="384.3516" fill="#84BE84" rx="3" ry="3" style="stroke:#038048;stroke-width:1.0;"/><text fill="#000000" font-family="sans-serif" font-size="14" lengthAdjust="spacing" textLength="446" x="441.5" y="388.5801">Deserialize(inputBuff: char*, buffLen: size_t): deserializedBuf: ExPacket</text></g><!--MD5=[bc94306c142baafd3cb82fad0340ab58]
class ExDataBuffer--><g id="elem_ExDataBuffer"><rect codeLine="81" fill="#F1F1F1" height="83.2188" id="ExDataBuffer" rx="3.5" ry="3.5" style="stroke:#181818;stroke-width:0.5;" width="143" x="370" y="544.1094"/><ellipse cx="397.6" cy="560.1094" fill="#ADD1B2" rx="11" ry="11" style="stroke:#181818;stroke-width:1.0;"/><path d="M400.3656,555.9844 Q400.5219,555.7656 400.7094,555.6563 Q400.8969,555.5469 401.1156,555.5469 Q401.4906,555.5469 401.725,555.8125 Q401.9594,556.0625 401.9594,556.6719 L401.9594,558.125 Q401.9594,558.7344 401.725,559 Q401.4906,559.2656 401.1156,559.2656 Q400.7719,559.2656 400.5688,559.0625 Q400.3656,558.875 400.2563,558.3594 Q400.2094,558 400.0219,557.8125 Q399.6938,557.4375 399.0844,557.2188 Q398.475,557 397.85,557 Q397.0844,557 396.4438,557.3281 Q395.8188,557.6563 395.3188,558.4063 Q394.8344,559.1563 394.8344,560.1875 L394.8344,561.2813 Q394.8344,562.5156 395.725,563.3438 Q396.6156,564.1563 398.2094,564.1563 Q399.1469,564.1563 399.8031,563.9063 Q400.1938,563.75 400.6156,563.3125 Q400.8813,563.0469 401.0219,562.9688 Q401.1781,562.8906 401.3813,562.8906 Q401.7094,562.8906 401.9594,563.1563 Q402.225,563.4063 402.225,563.75 Q402.225,564.0938 401.8813,564.5 Q401.3813,565.0781 400.5844,565.4063 Q399.5063,565.8594 398.2094,565.8594 Q396.6938,565.8594 395.4906,565.2344 Q394.5063,564.7344 393.8188,563.6719 Q393.1313,562.5938 393.1313,561.3125 L393.1313,560.1563 Q393.1313,558.8281 393.7406,557.6875 Q394.3656,556.5313 395.4594,555.9219 Q396.5531,555.2969 397.7875,555.2969 Q398.5219,555.2969 399.1625,555.4688 Q399.8188,555.625 400.3656,555.9844 Z " fill="#000000"/><text fill="#000000" font-family="sans-serif" font-size="14" lengthAdjust="spacing" textLength="83" x="414.4" y="565.8379">ExDataBuffer</text><line style="stroke:#181818;stroke-width:0.5;" x1="371" x2="512" y1="576.1094" y2="576.1094"/><rect fill="none" height="6" style="stroke:#C82930;stroke-width:1.0;" width="6" x="378" y="587.4141"/><text fill="#000000" font-family="sans-serif" font-size="14" lengthAdjust="spacing" textLength="97" x="390" y="594.6426">otherVars: type</text><line style="stroke:#181818;stroke-width:0.5;" x1="371" x2="512" y1="601.7188" y2="601.7188"/><ellipse cx="381" cy="616.0234" fill="#84BE84" rx="3" ry="3" style="stroke:#038048;stroke-width:1.0;"/><text fill="#000000" font-family="sans-serif" font-size="14" lengthAdjust="spacing" textLength="117" x="390" y="620.252">otherFuncs(): type</text></g><!--MD5=[2e8d0db1523a3a816266c59ae926fa39]
class ExTailData--><g id="elem_ExTailData"><rect codeLine="87" fill="#F1F1F1" height="118.4375" id="ExTailData" rx="3.5" ry="3.5" style="stroke:#181818;stroke-width:0.5;" width="440" x="563.5" y="526.6094"/><ellipse cx="745.25" cy="542.6094" fill="#ADD1B2" rx="11" ry="11" style="stroke:#181818;stroke-width:1.0;"/><path d="M748.0156,538.4844 Q748.1719,538.2656 748.3594,538.1563 Q748.5469,538.0469 748.7656,538.0469 Q749.1406,538.0469 749.375,538.3125 Q749.6094,538.5625 749.6094,539.1719 L749.6094,540.625 Q749.6094,541.2344 749.375,541.5 Q749.1406,541.7656 748.7656,541.7656 Q748.4219,541.7656 748.2188,541.5625 Q748.0156,541.375 747.9063,540.8594 Q747.8594,540.5 747.6719,540.3125 Q747.3438,539.9375 746.7344,539.7188 Q746.125,539.5 745.5,539.5 Q744.7344,539.5 744.0938,539.8281 Q743.4688,540.1563 742.9688,540.9063 Q742.4844,541.6563 742.4844,542.6875 L742.4844,543.7813 Q742.4844,545.0156 743.375,545.8438 Q744.2656,546.6563 745.8594,546.6563 Q746.7969,546.6563 747.4531,546.4063 Q747.8438,546.25 748.2656,545.8125 Q748.5313,545.5469 748.6719,545.4688 Q748.8281,545.3906 749.0313,545.3906 Q749.3594,545.3906 749.6094,545.6563 Q749.875,545.9063 749.875,546.25 Q749.875,546.5938 749.5313,547 Q749.0313,547.5781 748.2344,547.9063 Q747.1563,548.3594 745.8594,548.3594 Q744.3438,548.3594 743.1406,547.7344 Q742.1563,547.2344 741.4688,546.1719 Q740.7813,545.0938 740.7813,543.8125 L740.7813,542.6563 Q740.7813,541.3281 741.3906,540.1875 Q742.0156,539.0313 743.1094,538.4219 Q744.2031,537.7969 745.4375,537.7969 Q746.1719,537.7969 746.8125,537.9688 Q747.4688,538.125 748.0156,538.4844 Z " fill="#000000"/><text fill="#000000" font-family="sans-serif" font-size="14" lengthAdjust="spacing" textLength="68" x="765.75" y="548.3379">ExTailData</text><line style="stroke:#181818;stroke-width:0.5;" x1="564.5" x2="1002.5" y1="558.6094" y2="558.6094"/><rect fill="none" height="6" style="stroke:#C82930;stroke-width:1.0;" width="6" x="571.5" y="569.9141"/><text fill="#000000" font-family="sans-serif" font-size="14" lengthAdjust="spacing" textLength="97" x="583.5" y="577.1426">otherVars: type</text><line style="stroke:#181818;stroke-width:0.5;" x1="564.5" x2="1002.5" y1="584.2188" y2="584.2188"/><ellipse cx="574.5" cy="598.5234" fill="#84BE84" rx="3" ry="3" style="stroke:#038048;stroke-width:1.0;"/><text fill="#000000" font-family="sans-serif" font-size="14" lengthAdjust="spacing" textLength="76" x="583.5" y="602.752">Start(): Bool</text><ellipse cx="574.5" cy="616.1328" fill="#84BE84" rx="3" ry="3" style="stroke:#038048;stroke-width:1.0;"/><text fill="#000000" font-family="sans-serif" font-size="14" lengthAdjust="spacing" textLength="288" x="583.5" y="620.3613">Encode(buffLen: size_t&amp;): encodedBuff: char*</text><ellipse cx="574.5" cy="633.7422" fill="#84BE84" rx="3" ry="3" style="stroke:#038048;stroke-width:1.0;"/><text fill="#000000" font-family="sans-serif" font-size="14" lengthAdjust="spacing" textLength="414" x="583.5" y="637.9707">Decode(encodedBuff:char*, buffLen: size_t&amp;): decodedBuff: char*</text></g><!--MD5=[276e5ba70e12bbbfe00d19f27ee40d41]
class ExCheckValue--><g id="elem_ExCheckValue"><rect codeLine="95" fill="#F1F1F1" height="83.2188" id="ExCheckValue" rx="3.5" ry="3.5" style="stroke:#181818;stroke-width:0.5;" width="143" x="1046" y="544.1094"/><ellipse cx="1070" cy="560.1094" fill="#ADD1B2" rx="11" ry="11" style="stroke:#181818;stroke-width:1.0;"/><path d="M1072.7656,555.9844 Q1072.9219,555.7656 1073.1094,555.6563 Q1073.2969,555.5469 1073.5156,555.5469 Q1073.8906,555.5469 1074.125,555.8125 Q1074.3594,556.0625 1074.3594,556.6719 L1074.3594,558.125 Q1074.3594,558.7344 1074.125,559 Q1073.8906,559.2656 1073.5156,559.2656 Q1073.1719,559.2656 1072.9688,559.0625 Q1072.7656,558.875 1072.6563,558.3594 Q1072.6094,558 1072.4219,557.8125 Q1072.0938,557.4375 1071.4844,557.2188 Q1070.875,557 1070.25,557 Q1069.4844,557 1068.8438,557.3281 Q1068.2188,557.6563 1067.7188,558.4063 Q1067.2344,559.1563 1067.2344,560.1875 L1067.2344,561.2813 Q1067.2344,562.5156 1068.125,563.3438 Q1069.0156,564.1563 1070.6094,564.1563 Q1071.5469,564.1563 1072.2031,563.9063 Q1072.5938,563.75 1073.0156,563.3125 Q1073.2813,563.0469 1073.4219,562.9688 Q1073.5781,562.8906 1073.7813,562.8906 Q1074.1094,562.8906 1074.3594,563.1563 Q1074.625,563.4063 1074.625,563.75 Q1074.625,564.0938 1074.2813,564.5 Q1073.7813,565.0781 1072.9844,565.4063 Q1071.9063,565.8594 1070.6094,565.8594 Q1069.0938,565.8594 1067.8906,565.2344 Q1066.9063,564.7344 1066.2188,563.6719 Q1065.5313,562.5938 1065.5313,561.3125 L1065.5313,560.1563 Q1065.5313,558.8281 1066.1406,557.6875 Q1066.7656,556.5313 1067.8594,555.9219 Q1068.9531,555.2969 1070.1875,555.2969 Q1070.9219,555.2969 1071.5625,555.4688 Q1072.2188,555.625 1072.7656,555.9844 Z " fill="#000000"/><text fill="#000000" font-family="sans-serif" font-size="14" lengthAdjust="spacing" textLength="91" x="1086" y="565.8379">ExCheckValue</text><line style="stroke:#181818;stroke-width:0.5;" x1="1047" x2="1188" y1="576.1094" y2="576.1094"/><rect fill="none" height="6" style="stroke:#C82930;stroke-width:1.0;" width="6" x="1054" y="587.4141"/><text fill="#000000" font-family="sans-serif" font-size="14" lengthAdjust="spacing" textLength="97" x="1066" y="594.6426">otherVars: type</text><line style="stroke:#181818;stroke-width:0.5;" x1="1047" x2="1188" y1="601.7188" y2="601.7188"/><ellipse cx="1057" cy="616.0234" fill="#84BE84" rx="3" ry="3" style="stroke:#038048;stroke-width:1.0;"/><text fill="#000000" font-family="sans-serif" font-size="14" lengthAdjust="spacing" textLength="117" x="1066" y="620.252">otherFuncs(): type</text></g><!--MD5=[e5b177e58330712d41f8b0b48793630b]
reverse link HeaderDataStruct to netFmt--><g id="link_HeaderDataStruct_netFmt"><path codeLine="31" d="M121.52,710.4894 C116.65,727.7494 111.96,744.3594 107.98,758.4494 " fill="none" id="HeaderDataStruct-backto-netFmt" style="stroke:#454645;stroke-width:1.0;"/><polygon fill="#454645" points="125.09,697.8394,119.6069,702.5229,121.8212,709.3856,127.3043,704.7021,125.09,697.8394" style="stroke:#454645;stroke-width:1.0;"/></g><!--MD5=[4ca9f3f46e247812d109d745446eeffe]
reverse link HeaderDataStruct to std::bitset--><g id="link_HeaderDataStruct_std::bitset"><path codeLine="32" d="M193.42,717.3794 C199.75,739.7994 205.65,760.6794 209.9,775.7194 " fill="none" id="HeaderDataStruct-backto-std::bitset" style="stroke:#454645;stroke-width:1.0;"/><polygon fill="none" points="186.6,718.9894,187.91,697.8394,200.08,715.1794,186.6,718.9894" style="stroke:#454645;stroke-width:1.0;"/></g><!--MD5=[d0d0a3f9d2f07df2f673d439db9c63ff]
reverse link HeaderData to HeaderDataStruct--><g id="link_HeaderData_HeaderDataStruct"><path codeLine="39" d="M156.5,382.4094 C156.5,408.9194 156.5,441.9194 156.5,473.5194 " fill="none" id="HeaderData-backto-HeaderDataStruct" style="stroke:#454645;stroke-width:1.0;"/><polygon fill="#454645" points="156.5,369.1694,152.5,375.1694,156.5,381.1694,160.5,375.1694,156.5,369.1694" style="stroke:#454645;stroke-width:1.0;"/></g><!--MD5=[75194f1e61fb5ebed1ae98fd88204f99]
reverse link Packet to HeaderData--><g id="link_Packet_HeaderData"><path codeLine="54" d="M761.65,138.5394 C591.53,179.7194 261.5,259.6094 261.5,259.6094 C261.5,259.6094 242.11,271.9794 220,286.0894 " fill="none" id="Packet-backto-HeaderData" style="stroke:#454645;stroke-width:1.0;"/><polygon fill="none" points="774.36,135.4594,767.5873,132.9834,762.6969,138.2828,769.4696,140.7588,774.36,135.4594" style="stroke:#454645;stroke-width:1.0;"/></g><!--MD5=[9fcb3825eb35458b6103025dd128293b]
reverse link Packet to DataBuffer--><g id="link_Packet_DataBuffer"><path codeLine="55" d="M761.56,145.9994 C627.17,188.6394 403.5,259.6094 403.5,259.6094 C403.5,259.6094 384.91,277.1494 366.75,294.2894 " fill="none" id="Packet-backto-DataBuffer" style="stroke:#454645;stroke-width:1.0;"/><polygon fill="none" points="774.27,141.9694,767.3421,139.9683,762.8304,145.5937,769.7583,147.5947,774.27,141.9694" style="stroke:#454645;stroke-width:1.0;"/></g><!--MD5=[2c01ec5c2cb0a92d05553b062b1b2214]
reverse link Packet to TailData--><g id="link_Packet_TailData"><path codeLine="56" d="M905.84,193.3994 C926.02,228.4694 948.66,267.8094 964.07,294.5794 " fill="none" id="Packet-backto-TailData" style="stroke:#454645;stroke-width:1.0;"/><polygon fill="none" points="899.1,181.6894,898.6254,188.8848,905.0849,192.0904,905.5594,184.8949,899.1,181.6894" style="stroke:#454645;stroke-width:1.0;"/></g><!--MD5=[a9970206d9774f79a7b25309843ca331]
reverse link Packet to CheckValue--><g id="link_Packet_CheckValue"><path codeLine="57" d="M957.15,187.2194 C1005.35,223.4294 1053.5,259.6094 1053.5,259.6094 C1053.5,259.6094 1072.35,277.1494 1090.77,294.2894 " fill="none" id="Packet-backto-CheckValue" style="stroke:#454645;stroke-width:1.0;"/><polygon fill="none" points="946.56,179.2594,948.9555,186.061,956.1552,186.4657,953.7597,179.6641,946.56,179.2594" style="stroke:#454645;stroke-width:1.0;"/></g><!--MD5=[83c3776123472f869a4cdbda5a7950f3]
reverse link Packet to SizeLimit--><g id="link_Packet_SizeLimit"><path codeLine="58" d="M959.07,157.0194 C1058.53,199.8194 1197.5,259.6094 1197.5,259.6094 C1197.5,259.6094 1216.09,277.1494 1234.25,294.2894 " fill="none" id="Packet-backto-SizeLimit" style="stroke:#454645;stroke-width:1.0;"/><polygon fill="none" points="946.85,151.7594,950.7787,157.8063,957.8715,156.5055,953.9428,150.4586,946.85,151.7594" style="stroke:#454645;stroke-width:1.0;"/></g><!--MD5=[ad8b84fb57aad3181c2075400519f786]
reverse link Packet to ExPacket--><g id="link_Packet_ExPacket"><path codeLine="79" d="M782.29,196.2894 C762.24,217.2194 740.91,239.4994 721.66,259.5994 " fill="none" id="Packet-backto-ExPacket" style="stroke:#454645;stroke-width:1.0;stroke-dasharray:7.0,7.0;"/><polygon fill="none" points="777.38,191.2894,796.27,181.6894,787.49,200.9694,777.38,191.2894" style="stroke:#454645;stroke-width:1.0;"/><text fill="#000000" font-family="sans-serif" font-size="13" lengthAdjust="spacing" textLength="67" x="766.5" y="226.1045">implements</text></g><!--MD5=[6247711c7e944a15ddef67b0d0871a80]
reverse link DataBuffer to ExDataBuffer--><g id="link_DataBuffer_ExDataBuffer"><path codeLine="85" d="M354.06,379.2494 C374.62,427.5194 405.17,499.2794 424.18,543.9294 " fill="none" id="DataBuffer-backto-ExDataBuffer" style="stroke:#454645;stroke-width:1.0;stroke-dasharray:7.0,7.0;"/><polygon fill="none" points="347.59,381.9194,346.19,360.7694,360.47,376.4294,347.59,381.9194" style="stroke:#454645;stroke-width:1.0;"/><text fill="#000000" font-family="sans-serif" font-size="13" lengthAdjust="spacing" textLength="67" x="381.5" y="440.1045">implements</text></g><!--MD5=[d0700452eb50af82786caf5f7a62f961]
reverse link TailData to ExTailData--><g id="link_TailData_ExTailData"><path codeLine="93" d="M945.22,376.5694 C912.18,419.0694 863.87,481.2194 828.66,526.5194 " fill="none" id="TailData-backto-ExTailData" style="stroke:#454645;stroke-width:1.0;stroke-dasharray:7.0,7.0;"/><polygon fill="none" points="939.7,372.2694,957.5,360.7694,950.75,380.8594,939.7,372.2694" style="stroke:#454645;stroke-width:1.0;"/><text fill="#000000" font-family="sans-serif" font-size="13" lengthAdjust="spacing" textLength="67" x="908.5" y="440.1045">implements</text></g><!--MD5=[446a92c5246c35d8496508fb03696c3e]
reverse link CheckValue to ExCheckValue--><g id="link_CheckValue_ExCheckValue"><path codeLine="99" d="M1123.87,380.8694 C1122.36,429.1194 1120.15,499.7694 1118.77,543.9294 " fill="none" id="CheckValue-backto-ExCheckValue" style="stroke:#454645;stroke-width:1.0;stroke-dasharray:7.0,7.0;"/><polygon fill="none" points="1116.87,380.5394,1124.49,360.7694,1130.87,380.9794,1116.87,380.5394" style="stroke:#454645;stroke-width:1.0;"/><text fill="#000000" font-family="sans-serif" font-size="13" lengthAdjust="spacing" textLength="67" x="1122.5" y="440.1045">implements</text></g><!--MD5=[b6425a3bde2011b3b6dc0ce82bfe694d]
reverse link ExPacket to ExDataBuffer--><g id="link_ExPacket_ExDataBuffer"><path codeLine="101" d="M592.22,405.9794 C553.96,451.3294 507.16,506.7894 475.96,543.7694 " fill="none" id="ExPacket-backto-ExDataBuffer" style="stroke:#454645;stroke-width:1.0;"/><polygon fill="none" points="600.75,395.8694,593.8226,397.8722,593.007,405.037,599.9344,403.0342,600.75,395.8694" style="stroke:#454645;stroke-width:1.0;"/></g><!--MD5=[e09c0a3d5c13d6aa7fa789407234ceeb]
reverse link ExPacket to ExTailData--><g id="link_ExPacket_ExTailData"><path codeLine="102" d="M696.35,407.5494 C715.25,445.9494 737.57,491.2994 754.89,526.4894 " fill="none" id="ExPacket-backto-ExTailData" style="stroke:#454645;stroke-width:1.0;"/><polygon fill="none" points="690.61,395.8694,689.6629,403.018,695.8973,406.6418,696.8444,399.4931,690.61,395.8694" style="stroke:#454645;stroke-width:1.0;"/></g><!--MD5=[916719230527b0f4a0854194b09038a4]
reverse link ExPacket to ExCheckValue--><g id="link_ExPacket_ExCheckValue"><path codeLine="103" d="M803.34,401.5294 C848.91,424.3094 887.5,443.6094 887.5,443.6094 C887.5,443.6094 1020.5,473.6094 1020.5,473.6094 C1020.5,473.6094 1054.25,512.2294 1081.93,543.9094 " fill="none" id="ExPacket-backto-ExCheckValue" style="stroke:#454645;stroke-width:1.0;"/><polygon fill="none" points="791.62,395.6694,795.1977,401.9304,802.3531,401.0359,798.7754,394.7749,791.62,395.6694" style="stroke:#454645;stroke-width:1.0;"/></g><!--MD5=[baba3b7fc60e3e80f9c084f5e7c6d52b]
@startuml SassoGNL Packet API
title SassoGNL Packet API
!theme vibrant
skinparam linetype polyline

interface Packet {
    HeaderData: HeaderData
    DataBuffer: DataBuffer
    TailData: TailData
    CheckValue: CheckValue
    SizeLimit: SizeLimit
}

enum netFmt{
    +IPv4
    +IPv6
}

struct HeaderDataStruct{
    netFmt: netFmt
    sendIP: sockaddr_storage
    recvIP: sockaddr_storage
    commPort: unsigned short
    dataSize: size_t
    tailSize: size_t
    checkValSize: size_t
    dataPos: unsigned short
    flagBArrSize: unsigned short
    flagBArr: bitset<flagBArrSize> [unsigned long]
}

HeaderDataStruct *-d- netFmt
HeaderDataStruct <|-d- std::bitset

class HeaderData {
    -data: HeaderDataStruct

    +getMaxSize()
}
HeaderData *- - HeaderDataStruct

interface DataBuffer {
    +getMaxSize()
}
interface TailData {
    +getMaxSize()
}
interface CheckValue {
    +getMaxSize()
}
class SizeLimit {
    +getMaxSize()
}

Packet o-d- HeaderData
Packet o-d- DataBuffer
Packet o-d- TailData
Packet o-d- CheckValue
Packet o-d- SizeLimit

' newpage

' interface Packet

' class HeaderData
' abstract class DataBuffer
' abstract class TailData
' abstract class CheckValue
' class SizeLimit


class ExPacket {
    -DataBuffer: ExDataBuffer
    -TailData: ExTailData
    -CheckValue: ExCheckValue

    +Serialize(buffLen: size_t&): serializedBuff: char*
    +Deserialize(inputBuff: char*, buffLen: size_t): deserializedBuf: ExPacket
}
Packet <|.d. ExPacket: implements

class ExDataBuffer{
    -otherVars: type
    +otherFuncs(): type
}
DataBuffer <|.d. ExDataBuffer: implements

class ExTailData{
    -otherVars: type
    +Start(): Bool
    +Encode(buffLen: size_t&): encodedBuff: char*
    +Decode(encodedBuff:char*, buffLen: size_t&): decodedBuff: char*
}
TailData  <|.d. ExTailData: implements

class ExCheckValue{
    -otherVars: type
    +otherFuncs(): type
}
 CheckValue <|.d. ExCheckValue: implements

ExPacket o-d- ExDataBuffer
ExPacket o-d- ExTailData
ExPacket o-d- ExCheckValue

@enduml

@startuml SassoGNL Packet API
title SassoGNL Packet API
skinparam BackgroundColor FFFFFF
skinparam shadowing false
skinparam RoundCorner 7
skinparam ArrowColor 454645
skinparam FontColor 454645
skinparam SequenceLifeLineBorderColor 696969
skinparam SequenceGroupHeaderFontColor 454645
skinparam SequenceGroupFontColor 696969
skinparam SequenceGroupBorderColor 696969
skinparam SequenceGroupBorderThickness 1

skinparam sequenceDivider {
    BorderColor 454645
    BorderThickness 1
    FontColor 454645
}

skinparam participant {
    BackgroundColor FF6347
    BorderColor 454645
    FontColor FFFFFF
    BorderThickness 1.5
}

skinparam database {
    BackgroundColor 00FFFF
    BorderColor 454645
    FontColor 454645
}

skinparam entity {
    BackgroundColor FFE552
    BorderColor 454645
    FontColor 454645
}

skinparam note {
    BackgroundColor 7FFFD4
    BorderColor 454645
    FontColor 454645
    BorderThickness 1.5
}

skinparam actor {
    BackgroundColor 454645
    BorderColor 454645
    FontColor 454645
}

skinparam boundary {
    BackgroundColor FFE552
    BorderColor 454645
    FontColor 454645
}

skinparam control {
    BackgroundColor FFE552
    BorderColor 454645
    FontColor 454645
}

skinparam collections {
    BackgroundColor FF5F42
    BorderColor 454645
    FontColor 454645
}

skinparam queue {
    BackgroundColor FF6347
    BorderColor 454645
    FontColor FFF
    BorderThickness 1.5
}
skinparam linetype polyline

interface Packet {
    HeaderData: HeaderData
    DataBuffer: DataBuffer
    TailData: TailData
    CheckValue: CheckValue
    SizeLimit: SizeLimit
}

enum netFmt{
    +IPv4
    +IPv6
}

struct HeaderDataStruct{
    netFmt: netFmt
    sendIP: sockaddr_storage
    recvIP: sockaddr_storage
    commPort: unsigned short
    dataSize: size_t
    tailSize: size_t
    checkValSize: size_t
    dataPos: unsigned short
    flagBArrSize: unsigned short
    flagBArr: bitset<flagBArrSize> [unsigned long]
}

HeaderDataStruct *-d- netFmt
HeaderDataStruct <|-d- std::bitset

class HeaderData {
    -data: HeaderDataStruct

    +getMaxSize()
}
HeaderData *- - HeaderDataStruct

interface DataBuffer {
    +getMaxSize()
}
interface TailData {
    +getMaxSize()
}
interface CheckValue {
    +getMaxSize()
}
class SizeLimit {
    +getMaxSize()
}

Packet o-d- HeaderData
Packet o-d- DataBuffer
Packet o-d- TailData
Packet o-d- CheckValue
Packet o-d- SizeLimit





class ExPacket {
    -DataBuffer: ExDataBuffer
    -TailData: ExTailData
    -CheckValue: ExCheckValue

    +Serialize(buffLen: size_t&): serializedBuff: char*
    +Deserialize(inputBuff: char*, buffLen: size_t): deserializedBuf: ExPacket
}
Packet <|.d. ExPacket: implements

class ExDataBuffer{
    -otherVars: type
    +otherFuncs(): type
}
DataBuffer <|.d. ExDataBuffer: implements

class ExTailData{
    -otherVars: type
    +Start(): Bool
    +Encode(buffLen: size_t&): encodedBuff: char*
    +Decode(encodedBuff:char*, buffLen: size_t&): decodedBuff: char*
}
TailData  <|.d. ExTailData: implements

class ExCheckValue{
    -otherVars: type
    +otherFuncs(): type
}
 CheckValue <|.d. ExCheckValue: implements

ExPacket o-d- ExDataBuffer
ExPacket o-d- ExTailData
ExPacket o-d- ExCheckValue

@enduml

PlantUML version 1.2022.7(Mon Aug 22 13:01:30 EDT 2022)
(GPL source distribution)
Java Runtime: Java(TM) SE Runtime Environment
JVM: Java HotSpot(TM) 64-Bit Server VM
Default Encoding: UTF-8
Language: en
Country: CA
--></g></svg>